/* XPM */
static char *bitcoin32[] = {
/* columns rows colors chars-per-pixel */
"32 32 126 2 ",
"   c None",
".  c #3284C6",
"X  c #3285C6",
"o  c #3285C7",
"O  c #3286C7",
"+  c #3386C7",
"@  c #3487C7",
"#  c #3487C8",
"$  c #3388C9",
"%  c #3389C9",
"&  c #3389CA",
"*  c #338ACA",
"=  c #338BCA",
"-  c #328BCB",
";  c #338BCB",
":  c #3488C8",
">  c #3488C9",
",  c #3489C9",
"<  c #348ACA",
"1  c #328CCB",
"2  c #318DCC",
"3  c #328CCC",
"4  c #328DCC",
"5  c #318ECD",
"6  c #318FCD",
"7  c #328ECD",
"8  c #2F92CF",
"9  c #3090CE",
"0  c #3190CE",
"q  c #3190CF",
"w  c #3091CF",
"e  c #3092CF",
"r  c #2F92D0",
"t  c #2F93D0",
"y  c #2E93D1",
"u  c #2F93D1",
"i  c #2E94D1",
"p  c #2F94D1",
"a  c #2D95D2",
"s  c #2E95D2",
"d  c #2D96D3",
"f  c #2C97D3",
"g  c #2D97D3",
"h  c #2E96D2",
"j  c #2C98D3",
"k  c #2B99D4",
"l  c #2B9AD5",
"z  c #2B9AD6",
"x  c #2B9BD6",
"c  c #2C98D4",
"v  c #2C99D4",
"b  c #2B9CD7",
"n  c #2B9ED7",
"m  c #2B9DD8",
"M  c #2B9ED8",
"N  c #2C9ED8",
"B  c #2C9FD8",
"V  c #2C9FD9",
"C  c #3092D0",
"Z  c #2CA0D9",
"A  c #2CA0DA",
"S  c #2DA1DA",
"D  c #2DA2DB",
"F  c #2DA3DB",
"G  c #2CA3DC",
"H  c #2DA3DC",
"J  c #2CA4DC",
"K  c #2DA4DC",
"L  c #2CA4DD",
"P  c #2DA4DD",
"I  c #2CA5DD",
"U  c #2DA5DD",
"Y  c #2CA5DE",
"T  c #2CA6DE",
"R  c #2CA6DF",
"E  c #2CA7DF",
"W  c #2CA8DF",
"Q  c #2BA9E0",
"!  c #2BA9E1",
"~  c #2BAAE0",
"^  c #2BAAE1",
"/  c #2BABE2",
"(  c #2CA8E0",
")  c #2CA9E0",
"_  c #2CAAE1",
"`  c #2BACE2",
"'  c #2BADE3",
"]  c #2BAEE4",
"[  c #2BAFE4",
"{  c #2BAFE5",
"}  c #2BB0E5",
"|  c #2BB0E6",
" . c #2BB1E6",
".. c #2BB2E7",
"X. c #2BB3E7",
"o. c #2BB4E8",
"O. c #2BB5E8",
"+. c #2BB5E9",
"@. c #2BB6E9",
"#. c #2BB6EA",
"$. c #2BB7EA",
"%. c #2CB5E9",
"&. c #2CB6E9",
"*. c #2CB7EA",
"=. c #2BB8EB",
"-. c #2BB9EB",
";. c #2CB8EA",
":. c #2CB8EB",
">. c #2CB9EB",
",. c #2BBAEC",
"<. c #2BBBEC",
"1. c #2BBCED",
"2. c #2BBCEE",
"3. c #2CBCED",
"4. c #2CBCEE",
"5. c #2CBDEE",
"6. c #2CBEEF",
"7. c #2CBFEF",
"8. c #2CC0F0",
"9. c #2DC0F0",
"0. c #2CC0F1",
"q. c #2DC0F1",
"w. c #2CC1F1",
"e. c #2DC1F1",
"r. c #2DC2F2",
"t. c #2DC3F2",
/* pixels */
"                                                                ",
"                                                                ",
"            r.9.7.2.,.>.        r.8.6.3.,.:.                    ",
"          t.w.7.5.<.>.;.      r.8.6.3.,.:.*.      5.            ",
"          w.7.5.<.>.*.        9.6.3.,.:.*.      1.@.}           ",
"        e.7.5.<.>.*.@.      q.6.3.,.=.#.#.      @.} ~ Y         ",
"      w.7.4.<.>.*.+.      0.6.3.,.:.@.%.      +.} ~ J B         ",
"      7.5.,.-.$.O.o.      6.3.,.:.@.o.        } Q J N c i       ",
"      5.,.>.$.O.X. .      4.,.:.&.o... .      ) J N c t 0       ",
"        >.*.O.X. .{         :.&.o...| [       J M c t 5         ",
"        *.O.X. .[ ' `       *.o...| ] ' `       c t 2           ",
"          X. .[ ' / ^ )       ..} ] ' / !         2 &           ",
"            { ' / ^ W E        .[ ' / Q W R       $             ",
"            ' / ^ W T I K       ' / Q W T P K                   ",
"              ^ W T I H D         Q W T P F S                   ",
"              ( T U H D Z N       ( T L F S V N                 ",
"                U H S Z N b x       U F S V N b x               ",
"                  D Z N b l k       H S V N b l v               ",
"                  A N b l k f d       V M b l v g h             ",
"            6.      b l v f s i         b l v g s p             ",
"          3.@.      x v f s p 8 w       z c g a u e w           ",
"        ,.@.[ _       g a p 8 9 6 5       g s y e 9 6 7         ",
"        +.[ Q J         p 8 9 6 2 1       s p e 9 5 4 ;         ",
"      o.[ Q G M c       C 9 6 2 - * ,       C 9 5 2 - * >       ",
"      [ ) G n j t       q 6 2 - * > #       0 5 4 ; * : #       ",
"        G n j 8 6       6 2 - * > #         5 4 ; < : #         ",
"        m j 8 4       6 2 - * > # O       5 4 = < : + O         ",
"          r 4         4 - * > @ o       5 4 = < : + o           ",
"          3 %       4 ; < > @ X .       4 = , : + X .           ",
"                    1 * , # O .         - * > # X .             ",
"                                                                ",
"                                                                "
};
