/* XPM */
static char *bitcoin16[] = {
/* columns rows colors chars-per-pixel */
"16 16 57 1 ",
"  c None",
". c #3385C7",
"X c #3386C7",
"o c #328BCB",
"O c #338BCB",
"+ c #3488C8",
"@ c #3488C9",
"# c #3489C9",
"$ c #328CCB",
"% c #328CCC",
"& c #328DCD",
"* c #318ECD",
"= c #318FCD",
"- c #318FCE",
"; c #2F92CF",
": c #2F92D0",
"> c #2E94D1",
", c #2D95D2",
"< c #2E95D2",
"1 c #2D96D2",
"2 c #2D97D3",
"3 c #2D98D3",
"4 c #2C98D4",
"5 c #2C99D4",
"6 c #2B9CD7",
"7 c #2C9ED8",
"8 c #2C9FD9",
"9 c #2CA0D9",
"0 c #2CA0DA",
"q c #2DA3DB",
"w c #2CA3DC",
"e c #2DA3DC",
"r c #2CA4DC",
"t c #2CA6DE",
"y c #2BA9E0",
"u c #2BAAE0",
"i c #2BAAE1",
"p c #2CA9E1",
"a c #2BACE2",
"s c #2BADE3",
"d c #2BAFE4",
"f c #2BB0E5",
"g c #2BB1E5",
"h c #2BB1E6",
"j c #2BB2E6",
"k c #2BB4E8",
"l c #2BB5E8",
"z c #2BB5E9",
"x c #2CB7EA",
"c c #2BB8EA",
"v c #2BB9EB",
"b c #2CB8EB",
"n c #2CB9EB",
"m c #2CBCED",
"M c #2CBCEE",
"N c #2CBDEE",
"B c #2CC0F0",
/* pixels */
"                ",
"   Bmn  Bmn     ",
"  BNnx BMv  la  ",
"  Nvz  mbz ju7  ",
"  nlh  bkh  7>  ",
"  khsi kfsi ;%  ",
"   sit  syt     ",
"    te0 ptq9    ",
"    e96  e86    ",
"     651  65<   ",
"  cg 5,:- 4<;-  ",
"  dr  :=$  ;*O  ",
"  w3  *$@  *O@  ",
"  2= *o+X &O+X  ",
"     $#X  o@.   ",
"                "
};
