/* XPM */
static char *bitcoin128[] = {
/* columns rows colors chars-per-pixel */
"128 128 20 1 ",
"  c None",
". c #3285C6",
"X c #3588C7",
"o c #3487C8",
"O c #328CCB",
"+ c #2F92CF",
"@ c #3091CF",
"# c #2E95D2",
"$ c #2B9AD5",
"% c #2C9ED9",
"& c #3092D0",
"* c #2CA4DC",
"= c #2CA8DF",
"- c #2CA7E0",
"; c #2BACE2",
": c #2BB2E6",
"> c #2BB6E9",
", c #2CBBED",
"< c #2CBFF0",
"1 c #2DC1F1",
/* pixels */
"                                                                                                                                ",
"                                                                                                                                ",
"                                                                                                                                ",
"                                                                                                                                ",
"                                                                                                                                ",
"                                                                                                                                ",
"                                                                                                                                ",
"                                                                                                                                ",
"                                                                                                                                ",
"                        11111111111,1,,,,><,,,,,,,             1111111111111,,,<,,,,,,>,,,                                      ",
"                       1111111111,1,,,,1,,<>,>>>,,             1111111,11111<,<,,,:,,,>>>             11                        ",
"                       11111111111,,,1,,<,>>,,,>>             111111,1111111,,,,,,,,>>>,,            111                        ",
"                      11111111111,11,,,,,,>,,>>,,            1111111,11,1,,1,,,,>,,,>,>,             1111                       ",
"                     1111111111,,,,,,,,>>>>,>,,>             111111111,1,1,,,,,,,,>>>>>             11,,,,                      ",
"                     111111111,1,1,,,,,,,,,,>>>             11111111111,,,,,,,,,,>,>,>,            11,,,,,                      ",
"                    11111111,<<,1,,,,,,,>>,,>>,             11111111,1,,1,,,,>,>,>>,>>             1,,,,>>>                     ",
"                    11111,,1,,1,,,,,,,,>,,>>>,             11111,11,11,,,,,,,,,>,>>>,,            11,,>>>:>                     ",
"                   1111111111,1,<,,,,,,>>>>>>>            1111,111,1,,1,,,,>,>>,>>>>>             1,>>>>::::                    ",
"                  11111111,,,1,,,,,,>,>,,>,>,             1111,111,1,,,,,,,,>>,>,>>,             <,,,>>:::;;:                   ",
"                  111111,1,1,,,,,>,,,>,>>>>>             1111111,,,,1,,,,>,,>,>>>>>>            <,,>>>>::;;;;                   ",
"                 111111,<,,,,,,,,,,>>,,>>>>>             1111111,,,1,,,,,>,>>,>>>>>             ,,>>>>::;;;;==                  ",
"                 1111111,,1,1,,,,,>,>>>>>>,             111111,,11,,,,,,,,>,>>>>>,             ,,,>>::;;;;;==*                  ",
"                1111111,<,,,,,,,,>,>,>>>>>>            111111,1,,1,,,,,,,>,>,>>>>>             ,>>>:::;;;===***                 ",
"               111111111,,,,,,>,>,>>>>>>>>             11111,1,,,,,,,>>,,>>>>>>>>             ,,>>>::;;=;==*****                ",
"               1<<<<<<,<1,,,,,>,,>>>>>>>>             11<11<,,,1,,,,,>,>,>,>>>>>>            ,,>>:::;:====******                ",
"              11<<<,,<,,,,,,,>>,,>>>>>>>>             11<<<<,<,1,,>,,>,>>>>>>>>>             ,>:::::==;=******$*%               ",
"              11<<,<<,,,,,,>>,,>>>>>>>>>             1111<<,,,,,,,,,,,,>>>>>>>>             ,>:::::;====****$$$$$               ",
"             111<<<<,,,,,,>,,,,>>>>>>>>>            1111,<<<<>,,,,,>>,>>>>>>:>>             ,>:::=======*****$$$$$              ",
"            <11<<<,,,,,,,>>,,>>,>>:>>>>             11<<<<,,,,>,,>,,>>>>>>>>>>             >>::;;:====****$$$$$$###             ",
"            11<<,<,,,,,,,,,,>>,>>>>>>>             111<,,<,,,,,,>,,,,>>>>>>:>:            >>::::;=====***$*$$$$$###             ",
"           111,<,,,,,,,,,>>>>>>>>>>;>;             1,<<<<,,<,,>,,,>>>>>>>>::>             >>:;;;====****$*$$$$####&&            ",
"           1<,<<,,<,,,>,,>,>>>>>>>>>>>             1<,<,,,,>,,,,,>>>>>>>>::>>             >:;:;;===**$***$$$$###@&@&            ",
"            111,,,<,,,,,>,>>>>:>>:>::>             1<,,,,,,,>,,,,>>>>>>>:::>>>             >:;--==*****$$$$$##+#@@@             ",
"             1,1,,,><>>,>>>>>>>>:::::::             1,,,,,,,,,>>>>>>>>>:>>::;>             >;---==***$*$$$$###+@@@O             ",
"             ,,,,,>,,>>>,>>>>>>::::::;::            <<,,,,,,,>,>>>>>>:>::::::::             ;---=***$*$$$$####+@O@              ",
"              1,,>,,>>,>>>>>>>:::>::::::             <,,,>,,,,>>>>>>>>>:>::;::::            ;---***$*$$$#$##+++@&               ",
"              ,,,,>>>>>>>>>>>:::::::::;::             ,,>,>,>>>>>>>>::>::::::-::             -******$$$####+&&&OO               ",
"               ,,>>,,>>>>>>::::>::;::;:;;:            <,>,,>,>>>>>>:>:::::;::;:::             ***$$$$$$####@&OOO                ",
"                ,>>,>>>>>>>>>::::::::;;:::             ,,,>,>>>>>>:>>:::::::;::::             **$$$$$$###+O#OOO                 ",
"                ,,,>>>>>>>::::::::;:;::;-;;            ,,>>>>>>>:>:::::;:::;:;;;;-             *$*$$$####@#&OOO                 ",
"                 ,>>>>>>>::::::;::;:::;:;;;             ,,>>:,>,>:::>:::>;:::-;;:-;            *$$$####++@OOOO                  ",
"                 ,>>>>>>:::::::::;:;=;;=;;;;             >,,>:>::::>;:::;;:;-:;;-::             *$$####++@OOOO                  ",
"                  ,>>>:>::::::::;::::==:;:;;;            ,,:>::::>>::::;;>>;:;:;-;;-             $###++@OOOOO                   ",
"                   >>>:>:::::::::;=:=::;;;-;;             >:,:>:::;::;>;:;;;;;;;:--:             $##+@@OOOOO                    ",
"                   ,>:::>::::;:;;:=;=:=;=-;-;;            >>:>:::::::>;;;;;;;;;;;;;--             &#@@@@OOXO                    ",
"                    >::::::::;;;:=;::;;;;;-;-;             >::::::::;;;::;:;;;;;-;---;            #&+OOOO.X                     ",
"                    >::::::::::;:;;;;;;;==;--;-             :::::;;:;::;;;;;;;:;;----;             &@OOOOOo                     ",
"                     >:::::;;:;;;=:;;;;;;=-;----            >:::>::;::;;;;;;;;-;;-;----             OOOX..                      ",
"                      >:::;::;:;;;;;;;==-;=-===-             :::;;>;:;;;;;;;;;;-==;--=-             OOOoX                       ",
"                      ::::;:;;;;;;;;;;=;=======--             ::;::;;;;:;;;;----=-==----             X.oo                       ",
"                       :;;:;;;;;=;;;;;=;=;--*=***             ::;:;;;;;;;;;;-=-;=-=--=*-;            Ooo                        ",
"                       :::;::;;;:=;=====;=-*-=*=*-             :::;;;:;;;;-;;;;-==--==**-             oo                        ",
"                        :;;;;;;;;;;====;===-***=***            :;;;:;;;;-;=;====--*-****--                                      ",
"                         ;;;;=;;;;=;=;==--*-==****-             ;:;;;;;;;;===;==*---*****-                                      ",
"                         :;;;;;-====-===*-*=********             ;;;;;-;==;=====---**-*****                                     ",
"                          ;;;;;;==;-==-*-*=-********             :;;;;;-=;==-=----*-********                                    ",
"                          ;;;;;=====*;**-*=********%*             :;;==;==-==--=-***********                                    ",
"                           ;;;=;====-*;***=*******%*%*            ;--;=-=;===*=****-******%**                                   ",
"                            --======*;*=;**********%%*             ;;=;====--=***-*******%%%*                                   ",
"                            ;;=;====;*=********%%%*%%%*             ;;-;==*-**=**********%*%%*                                  ",
"                             ;--==*-**=**********%*%%%%             ;----*-=**=*******%**%*%%%%                                 ",
"                             ;--==--=-*****%**%**%%%*%%%             ;--=-=*=*=****%****%%%%%%*                                 ",
"                              ;-%--=********%*%%%%*%%%%%%            --=-*=**********%%%*%%*$%%%                                ",
"                               -=-=%*****%***%%*%%%%%%%%%             -==**-******%%*%%%%%%%%%%%%                               ",
"                               ;===*****%=%%=%%%%%%%%%$%%$             -***-****-***%%%%-%%%%%$%$                               ",
"                                =*******=%==%%%=%%%%$$%%$%             ---******%%*%%*%%%%%%$%%$%%                              ",
"                                 =****%*%%%%%%%%%%%$%%$$$$%             --*****%%-%%*%%%%%%$%$$$%$                              ",
"                                 =******=%%=%%%%%%%$%$$$$$$$            ******%*%-%-%%%%%%$%$%$$%$%                             ",
"                                  =*=%=*%%=$%%%%%%$$$$$$$$$$             *******%-%%%%%%%$%$$$$$$$$$                            ",
"                                  =*%%%%%%%%%%%%$$$%$$$$$$$$$             **%%*%%%%%%$%%$%$%$$$$#$$$                            ",
"                                   *%==%%%%%$%%%$$%$$$$$$$$#$             **%*%%%%%%%%%$%$%$$$$$$$#$%                           ",
"                                    =%%=%%%%%%%$*%$$$$#$#$#$#$             **%%%%%%%%%%%$%$$$$$$$##$$                           ",
"                                    **%%%%%%%%$$$$$$$$$$#$#$##$            ***%%%%%%%$%$$$$$$$$##$##&$                          ",
"                                     *%*%%%%%$$%$$$$$$$$$$$#$##             *%*%%%%%$%%$$$$$$$$$#$#$$#$                         ",
"                                     *%%%%%%$%$$$$$$#$$#$##$####             %%%$%$%%%$$$$$$#$#$$#$#$&$                         ",
"                        1             *%$%%$%$$$$$$$#$#$#$######             **&%%%%$$$$$$$$$#$$#$####&#                        ",
"                        11             %$%$%$$$$$#$$$##$$######&&             *%%%$$$$$$$$$$#$$#$######&                        ",
"                       111             %$$%$$$$$$$$##$##########&&            %%$%%$$$$$$$#$$$#######&&##                       ",
"                      11<,,             $$$$$$$$$##$$$$######&##&&             %$$$$$$$$$$$$$#########&&&#                      ",
"                      11,,,,            $$$$$$$$#$#$##$#####&##O&&&             $$$$$$$$##$###$#####&#&#&&                      ",
"                     1,,,,>>             %$$$#$$$#$#+$$+###+&+##&&&&            *%$$$$$$#$$$#######&#&O#&&&                     ",
"                     1,,,,>>>             $$$$$#+$+$+$+$#####++@&&@&             $$&$#$$#$##$#####&#@##@&&&                     ",
"                    1,,,>>>::             $$$$$#$$$$$$+##+#+@+@@&@@@&            %%$$$#$$#$#####&#&+#O#@O&&&                    ",
"                   1,,,,>:::::             %#$#$+$+#++#++#++#+@+&@O@O             $$##$##$#####&#&##&&@@O&&&&                   ",
"                   ,,,>>>:::;;:            $$#$##$+####&##+#@+#@&O&O@&             $$#$#$#####@###@@O#O@&O&O&                   ",
"                  1,,>>>:::;;;=             $#$#$#####+#+++@++O+&&O@@OO            $#$$#####&###&+&&#&&@O&@&OO                  ",
"                  1>>>>:;;;;;===             $#######+&++#@++@@@OO@OO&&             $##########@#&@@O&&OO@OO&&                  ",
"                 ,>,>::;:;;;====             #$#####&##++@@+O+O+O@O&OOOO            $$####&#@##@@@+@&@@@@@O&OO&                 ",
"                ,,>>>::::;===***-             #####@#@+++++@@@@@@OO&OOOO             ##&$#&&#@@@@O@@@@@O&O&OOO&o                ",
"                ,>>>::;:=;==******            &###+##++@++@+O+OO@OOOOOOOO             ##&###@#@#@#@@@OO@OOOOOOOO                ",
"               <>>::;:;;=;==****%%             $##&#@#@++@+O@OO@OO@OOOOXOO            $#&##&@@@@@@O@@@@O&OOOOOOoO               ",
"               ,>>:::==;===****$%%%             &&#++@@@+O++O+O@&OOOOOXOXO             &##&#@#@@@@@@OOO@OOOOOOoOO               ",
"              >>:::::;====***$**$$$             &#@&@@@@+O++O@OOOOOOOOOOXOO             &##@@@@@+O++@O@OOXOOOOOXOO              ",
"             ,>>::;;;;===****%$$$$#$             #&@@@@+O+OO@O@OOOoOooOoOOX             &&@@@@@@++OOOOOOOOOOOXOOXOO             ",
"             ,>:::;;====*****%$$$$###            #@@@@++++O+O@OOOOOOOOoOXoXO             &&@@@@@O+O+O+OOOOOOXXOXXXX             ",
"            >>:;;:;;==*****$$$$$##$#&             @@@@O+OOO@@OOoOOOOOoOoXXXXo            &&@@@O@OOO+OOOOOOOXOOOooXXX            ",
"            >:::;;-;*=*****$$$$$$##+@&            &@@O+O@OO@OOOOOOXOoOXXoXXoX             @@@@@@+OOOOOOOOXOOXOXoXOoo            ",
"            >:;;;;;=****$*$$$$$##&@@@             &&O@@@O@@OOOOOOXOOOOXoOoooO            @@@O@O@+O+OOO.OOooXXooXXooo            ",
"             :;;====*****$$$$$##&&&&@             @@@@OO&OOOOOOOXOoXoXoXoooo             &@+@O@OO+OO.OOOoOOXXOooooo             ",
"             ;;;===***$*$$$$####&&O&             &@OO@O@OOOOOOOOOoOOXoXoooo             &O+OO@O@OOO.OOOOOOoooXooooo             ",
"              ;;==***%*$$$$$###+&&OO            +@@+OO@OOOOOOoOooXXOXXooooo             &O@OOO@OOOOOOoO.OXXoXooooo              ",
"              --=****$$$$$$###++O&&             @@OO+@@OOOOOOOOOOooo.ooo.o             &O#@@O@OOOOOoOOOOXXXOooo.oo              ",
"               -**%*$$$$$###++++OO             @@@O@@@OOOOOOOoOoXXoXoooooo            +@O@O@@OOOOOOOOoooXooooo..O               ",
"                **%%$*$$$##++++.&O             @OOO@OOOOOOXoOOXoOoXooo.oo             @O@@OOOOOOOoOOoOoooXoooo.o                ",
"                ***$$$$$#++++O+.O             &&OO@OOOOOXOXOOXooooooo...             &@OOO@@OOOOOOOooooXXXoo...o                ",
"                 *$$$$$##++++++OO            &OO+@@OOOOOOOOoOXOXoooXo...             OO@@@OOOOOoOooOXoooXooo..o                 ",
"                 *$$#$###+++++.O             &&O@OOOOOXOOOoOXXoooooo.oo             &@@OOOOOOOoOOoOoooooooooo.o                 ",
"                  $$$###+++.OX+             &&OOO@OOOOOOXXOXooooooXo..o            @O+OOOOOXoOOOoOOooooooooooo                  ",
"                   $###+@@@OOOX             OO&&OOO.OOOOOXXXoXoo.....o             &OO@OOOOOOXOOOooooXoo.o...                   ",
"                   ##++@@OOOOX             O&OOOOOOOoOXOOoXXXooo.....             @O@OOOOOOOXOoXOoooXooo.o..o                   ",
"                    +++OOOOXOO            &O&OOOOOOOOOOOXOooXooo....o             @O@O@OOOOOOOOooooooooo....                    ",
"                    ++++OOOXO             O&OOOOOOO.OoooXXoooooo..oo             @@OOOOOOoOoOXoXoooooooo....                    ",
"                     &@OOXOo             O&XOOOOOOOOOOXoOooo........            O@OO@OOOOoOoOOoXoo.......oo                     ",
"                      OOOXoo            &&OOOOOOXOXXooOXooo.......o             &OOOOOOooOOOXXXXo........o                      ",
"                      OXooo             &O&XOOOOOOXOooXXoo.o......             OOOOOOOOOOX.XXooooo........                      ",
"                       Oooo            &OOOOOOXXOXOooXXoo.o.......             @OOOOOOOoOOXXooooo........                       ",
"                       Xoo             &OOOOOOOOOXXXXXoo...o.....             @OOOOOOXXOOoOXXXoo........                        ",
"                        o             &OOOOOXOXOOooXXooo.o.......            O@OOOOOOOOOoooXoooo........                        ",
"                                       & OOXOXOOOoXXooO.....o..               O OOOXOXXXXoXXooooo.....                          ",
"                                                                                                                                ",
"                                                                                                                                ",
"                                                                                                                                ",
"                                                                                                                                ",
"                                                                                                                                ",
"                                                                                                                                ",
"                                                                                                                                ",
"                                                                                                                                ",
"                                                                                                                                "
};
