/* XPM */
static char *bitcoin64[] = {
/* columns rows colors chars-per-pixel */
"64 64 223 2 ",
"   c None",
".  c #3283C6",
"X  c #3284C6",
"o  c #3285C6",
"O  c #3285C7",
"+  c #3385C7",
"@  c #3286C7",
"#  c #3386C7",
"$  c #3386C8",
"%  c #3387C8",
"&  c #3487C8",
"*  c #3587C8",
"=  c #3487C9",
"-  c #338AC9",
";  c #338ACA",
":  c #328BCA",
">  c #338BCA",
",  c #328BCB",
"<  c #338BCB",
"1  c #3488C8",
"2  c #3588C8",
"3  c #3488C9",
"4  c #3588C9",
"5  c #3489C9",
"6  c #3489CA",
"7  c #3589CA",
"8  c #348ACA",
"9  c #348BCB",
"0  c #318CCB",
"q  c #328CCB",
"w  c #338CCB",
"e  c #328DCB",
"r  c #318DCC",
"t  c #318DCD",
"y  c #328CCC",
"u  c #338CCC",
"i  c #328DCC",
"p  c #328DCD",
"a  c #318ECD",
"s  c #308FCD",
"d  c #318FCD",
"f  c #328ECD",
"g  c #318ECE",
"h  c #308FCE",
"j  c #318FCE",
"k  c #328ECE",
"l  c #328FCE",
"z  c #2F92CF",
"x  c #3090CE",
"c  c #3190CE",
"v  c #3090CF",
"b  c #3190CF",
"n  c #3091CF",
"m  c #3191CF",
"M  c #3092CF",
"N  c #2F92D0",
"B  c #2E93D0",
"V  c #2F93D0",
"C  c #2F93D1",
"Z  c #2D95D1",
"A  c #2E94D1",
"S  c #2F94D1",
"D  c #2D95D2",
"F  c #2E94D2",
"G  c #2F94D2",
"H  c #2E95D2",
"J  c #2F95D2",
"K  c #2D96D2",
"L  c #2C97D3",
"P  c #2D97D3",
"I  c #2E96D2",
"U  c #2E96D3",
"Y  c #2D97D4",
"T  c #2B98D3",
"R  c #2C98D3",
"E  c #2B98D4",
"W  c #2B99D4",
"Q  c #2B99D5",
"!  c #2A9AD5",
"~  c #2B9AD5",
"^  c #2A9BD5",
"/  c #2B9BD5",
"(  c #2A9BD6",
")  c #2B9BD6",
"_  c #2C98D4",
"`  c #2D98D4",
"'  c #2C99D4",
"]  c #2C98D5",
"[  c #2C99D5",
"{  c #2B9CD6",
"}  c #2B9CD7",
"|  c #2B9DD7",
" . c #2B9ED7",
".. c #2C9DD7",
"X. c #2B9DD8",
"o. c #2B9ED8",
"O. c #2B9ED9",
"+. c #2C9DD8",
"@. c #2C9ED8",
"#. c #2C9FD8",
"$. c #2C9FD9",
"%. c #3091D0",
"&. c #3191D0",
"*. c #3092D0",
"=. c #2CA0D9",
"-. c #2CA0DA",
";. c #2DA0DA",
":. c #2CA1DA",
">. c #2DA1DA",
",. c #2CA1DB",
"<. c #2DA1DB",
"1. c #2CA2DB",
"2. c #2DA2DB",
"3. c #2CA3DB",
"4. c #2DA3DB",
"5. c #2CA3DC",
"6. c #2DA3DC",
"7. c #2BA7DE",
"8. c #2CA4DC",
"9. c #2DA4DC",
"0. c #2CA4DD",
"q. c #2DA4DD",
"w. c #2CA5DD",
"e. c #2DA5DD",
"r. c #2CA5DE",
"t. c #2DA5DE",
"y. c #2CA6DE",
"u. c #2DA6DE",
"i. c #2CA7DE",
"p. c #2CA6DF",
"a. c #2DA6DF",
"s. c #2CA7DF",
"d. c #2DA7DF",
"f. c #2CA8DF",
"g. c #2BA9E0",
"h. c #2BA9E1",
"j. c #2BAAE0",
"k. c #2BAAE1",
"l. c #2BAAE2",
"z. c #2BABE2",
"x. c #2CA8E0",
"c. c #2CA9E0",
"v. c #2CA9E1",
"b. c #2CAAE1",
"n. c #2CABE2",
"m. c #2BACE2",
"M. c #2BADE2",
"N. c #2BACE3",
"B. c #2BADE3",
"V. c #2BAEE3",
"C. c #2CACE2",
"Z. c #2CACE3",
"A. c #2CADE3",
"S. c #2BADE4",
"D. c #2BAEE4",
"F. c #2BAFE4",
"G. c #2BAFE5",
"H. c #2BB0E5",
"J. c #2BB0E6",
"K. c #2AB1E6",
"L. c #2BB1E6",
"P. c #2BB1E7",
"I. c #2BB2E6",
"U. c #2BB2E7",
"Y. c #2BB3E7",
"T. c #2CB0E6",
"R. c #2BB3E8",
"E. c #2BB4E8",
"W. c #2BB5E8",
"Q. c #2BB4E9",
"!. c #2BB5E9",
"~. c #2BB6E9",
"^. c #2BB7E9",
"/. c #2BB6EA",
"(. c #2BB7EA",
"). c #2BB7EB",
"_. c #2CB4E8",
"`. c #2CB5E8",
"'. c #2CB5E9",
"]. c #2CB6E9",
"[. c #2CB5EA",
"{. c #2CB6EA",
"}. c #2CB7EA",
"|. c #2CB7EB",
" X c #2BB8EA",
".X c #2BB8EB",
"XX c #2BB9EB",
"oX c #2BBAEB",
"OX c #2CB8EA",
"+X c #2CB8EB",
"@X c #2CB9EB",
"#X c #2BB9EC",
"$X c #2BBAEC",
"%X c #2BBBED",
"&X c #2CB9EC",
"*X c #2CBAEC",
"=X c #2CBBEC",
"-X c #2CBBED",
";X c #2BBCED",
":X c #2BBDEE",
">X c #2BBEEE",
",X c #2CBCED",
"<X c #2CBCEE",
"1X c #2CBDEE",
"2X c #2CBDEF",
"3X c #2CBEEE",
"4X c #2CBEEF",
"5X c #2CBFEF",
"6X c #2CBEF0",
"7X c #2CBFF0",
"8X c #2CC0F0",
"9X c #2DC0F0",
"0X c #2CC0F1",
"qX c #2DC0F1",
"wX c #2CC1F1",
"eX c #2DC1F1",
"rX c #2DC2F1",
"tX c #2DC1F2",
"yX c #2DC2F2",
"uX c #2DC3F2",
"iX c #2DC3F3",
"pX c #2EC4F3",
"aX c #2EC4F4",
/* pixels */
"                                                                                                                                ",
"                                                                                                                                ",
"                                                                                                                                ",
"                                                                                                                                ",
"                          yXeX8X8X5X:X1X%X*X  @X                pXyXeX8X9X4X1X,X%X$X  +X                                        ",
"                        uXrXeX8X5X4X1X;X=X$XXX+X.X            aXyXeX8X8X5X1X,X%X$XXX@X+X              yX                        ",
"                      iXrXwX8X5X4X1X;X=X$X@XOXOX              uXeX8X8X4X1X,X%X$XXX@XOX+X            wX>X,X                      ",
"                    iXrXwX8X5X4X1X;X=X$X@XOX}.|.            uXeX8X8X5X1X,X%X$XXX@X}.}.              3XoX(.                      ",
"                    yXwX8X5X4X1X;X*X$X@XOX(.(.            iXrX8X8X5X1X,X%X$XXX@X}.}.).            4XoX~.Y.L.                    ",
"                  yXwX8X5X3X1X;X$X#X@XOX(./.              yX8X8X4X1X,X%X*XXX+X}././.            2X$X~.Y.H.B.                    ",
"                uXwX8X5X1X<X;X$X#X@XOX(.~.{.            yX8X8X4X1X,X%X*XXX+X(./.~.              $X~.Y.H.M.j.f.                  ",
"                eX8X5X1X<X;X$X#X@XOX(.~.].              wX8X4X1X;X%X*XXX+X(./.~.{.            $X~.Y.H.M.j.i.0.6.                ",
"              tX8X5X1X<X;X*X#X@XOX(.~.'.[.            wX8X4X1X;X%X*XXX+X}./.~.'.              ^.Y.H.m.j.i.8.:.$.                ",
"              9X5X1X<X;X*X$X@XOX(.~.!.'.            wX8X4X1X,X%X*XXX+X}.~.~.'.'.            (.Y.G.m.j.7.8.:.@.{ ~               ",
"            qX5X1X1X%X*X$X@XOX(.~.!.E.              9X4X1X,X%X$XXX+X}.~.~._.Q.            /.Y.F.m.g.i.8.:.@.) W K               ",
"            7X1X1X;X*X$X@X X/.~.'.R.R.            eX5X1X,X%X$XXX+X}.~.~._.Y.R.            Y.F.m.g.i.8.:.@.) W K V n             ",
"            6X1X%X*XXX@XOX/.~.'.R.U.U.              4X,X%X$XXX+X}.~.~._.Y.U.U.            J.m.g.y.8.:.o.) E K V x               ",
"              ;X*XXX@XOX/.~.'.R.U.I.K.L.            2X-X$XXX+X}.~.~._.Y.U.L.L.L.            b.y.9.:.o.) _ K V x j               ",
"              -X$X@XOX/.~.!.R.U.L.K.H.G.G.            -XXX+X}.~.~._.Y.U.L.L.G.G.              9.:.o.) _ K V x a                 ",
"                &XOX/.~.W.Y.Y.L.K.H.F.D.S.              @X}.~.~._.Y.U.L.L.G.F.V.S.            1.o.) _ K V x r u                 ",
"                  (.~.`.Y.Y.L.K.H.F.D.B.m.Z.            +X/.~._.Y.U.L.L.G.F.B.N.m.              { E D V x r <                   ",
"                  }.'.Y.Y.L.K.H.F.D.B.m.m.z.              {.E.Y.U.L.L.G.F.B.B.C.z.z.            [ K V x r >                     ",
"                    E.U.L.L.H.F.D.B.m.m.z.h.h.            [.Y.U.K.L.G.F.B.B.C.z.k.k.k.            C x r ; 5                     ",
"                    R.U.L.H.F.D.B.m.m.z.h.g.f.x.            R.K.J.G.F.B.B.C.z.k.g.g.x.              r ; 3                       ",
"                      P.H.F.D.B.m.z.l.k.g.f.s.d.              L.G.F.B.B.C.z.k.g.g.f.s.d.            < 1 %                       ",
"                        G.V.B.m.n.l.k.g.f.s.p.y.u.            T.F.B.B.C.z.k.g.g.f.s.u.y.              $                         ",
"                        G.B.m.n.l.k.g.f.s.p.y.w.q.              D.B.m.z.k.g.g.f.s.u.w.q.q.                                      ",
"                          A.n.l.h.g.f.s.a.y.e.9.5.6.            D.m.z.k.g.g.f.s.u.w.q.8.6.6.                                    ",
"                          Z.z.g.g.f.s.a.y.w.8.5.2.2.2.            N.k.g.g.f.s.y.w.q.8.4.2.2.                                    ",
"                            k.g.f.s.a.y.w.8.5.2.2.;.-.              k.g.f.s.y.w.q.8.4.2.>.-.-.                                  ",
"                              x.s.a.w.e.9.6.2.2.;.=.$.$.            v.f.s.y.w.q.8.4.2.>.-.=.$.                                  ",
"                              x.d.w.e.9.6.2.2.;.=.$.o.+.              s.y.w.q.5.4.2.>.-.=.@.@.X.                                ",
"                                y.e.9.6.2.2.;.=.#.o...} }             s.r.q.5.4.2.>.-.=.@.@.| } }                               ",
"                                u.9.6.2.>.;.=.#.@...} ( ( )             t.5.4.2.>.-.$.@.@.| } ) )                               ",
"                                  q.2.>.;.=.#.@...} ( ! ~ Q               6.2.>.-.$.@.@.| } ( ! ~ [                             ",
"                                    2.;.=.#.@.| } ) ! ~ W _ `             6.>.-.$.@.@.| } ( ! ~ _ _ `                           ",
"                                    <.=.#.@.| } ) ! ~ W _ P P               :.$.o.o.| } ( ! ~ _ _ L P                           ",
"                                      $.@.| } ) ! ~ W _ L K I H             -.O.| | } ( ! ~ _ _ L K H H                         ",
"                        wX            $.| } ) ! ~ ' _ L K H H S G             @.| } ( ! ~ _ _ L K H A S                         ",
"                      wX:X-X            X.( ! ~ ' _ L K H H A B *.              } ( ! ~ _ _ L K H A S V *.                      ",
"                    0X1XXX(.              ( ~ ' _ L K H F S V z n %.            } ~ W E _ L K H A S V M n &.                    ",
"                    :XXX~.I.J.            ) ' _ L K H F S V M n n x b             ~ E _ L K H A S V M n x c                     ",
"                  1XXX~.I.F.m.              _ L K H F S V z n n h s d             [ _ L K H A S V M n x h d l                   ",
"                  XX!.I.F.m.g.s.            ` P H F S V z n v h d a t p             Y K H A S V M n x h d a p                   ",
"                #X!.I.F.m.g.y.9.2.            U F S V z n v h d a t y q               H A S V M n x h a a r q w                 ",
"              #X~.I.F.m.g.y.9.:.o.              S V M n v h d a t y , > 9             J S V M n x h a a r q , > 9               ",
"              ~.I.F.m.g.y.5.:.o.( [             S *.n v h d a t q , > ; 8 7             C M n x h a a r q , > ; 6               ",
"            !.I.F.m.g.y.5.:. .^ T D               *.v h d a t q , > ; 6 3 4               n x h a a r q , ; ; 5 2 4             ",
"            U.F.m.g.y.5.:. ./ T Z N n             m h d a r q , > ; 6 1 * &               n s a a r q , ; ; 5 1 * =             ",
"            G.m.c.y.5.:. ./ R Z z x               h d a r q , > ; 6 1 * & %             m h a a i q , ; ; 5 1 * % %             ",
"              v.y.3.=. ./ R Z z x k             b d a r q , > ; 6 1 * & $               j a a i q , ; ; 5 1 * $ $               ",
"                9.=.| / R Z z s f             b d a r q , > ; 5 1 * & # $             c a a i q : ; 8 5 2 * $ #                 ",
"                ,.| ~ R Z z s i               j a r q , > ; 5 1 * & # @             b d a i q > ; 8 5 2 * $ @ @                 ",
"                  ) R Z z s e <             j a r q , > ; 5 1 * & # @               j a i q > ; 8 5 2 * $ # @                   ",
"                  ] H z s q ;               a r q , > ; 5 1 * & # o O             l a i q > ; 8 5 2 & $ # o O                   ",
"                    V s 0 ; 6             g r q , > ; 5 1 * & # o o               a i q > ; 8 5 2 & $ # o o                     ",
"                      i - 3             k t q , > ; 5 1 * & # o o +             a i q > ; ; 5 2 & $ # o o                       ",
"                      8 &               p q , > 8 5 1 * & # o X X             g i q > ; ; 3 2 & $ @ o X X                       ",
"                        $             f q , > 8 5 1 * % # o X .               i q > ; ; 5 2 & $ @ o X .                         ",
"                                                                                                                                ",
"                                                                                                                                ",
"                                                                                                                                ",
"                                                                                                                                ",
"                                                                                                                                "
};
